<?xml version="1.0" encoding="utf-8"?>
<!-- Generator: Adobe Illustrator 26.3.1, SVG Export Plug-In . SVG Version: 6.00 Build 0)  -->
<svg version="1.1" id="Capa_1" xmlns="http://www.w3.org/2000/svg" xmlns:xlink="http://www.w3.org/1999/xlink" x="0px" y="0px"
	 viewBox="0 0 828.78 1042.22" style="enable-background:new 0 0 828.78 1042.22;" xml:space="preserve">
<style type="text/css">
	.st0{fill:#0015FE;}
	.st1{fill:#85C246;}
	.st2{fill:#84C246;}
	.st3{fill:#0115FB;}
	.st4{fill:#0115FC;}
	.st5{fill:#0216FB;}
	.st6{fill:#0918D2;}
	.st7{fill:#0919CE;}
	.st8{fill:#0918D3;}
	.st9{fill:#FDFDFE;}
</style>
<g>
	<path class="st0" d="M595.83,314.31c-27.29,29.73-54.57,59.22-81.59,88.93c-32.74,36-65.25,72.2-97.9,108.28
		c-14.9,16.46-30.14,32.63-44.74,49.34c-5.87,6.72-9.84,6.58-15.77,0.05c-33.66-37.09-68.12-73.51-101.18-111.09
		c-8.13-9.24-11.25-6.78-17.71,0.33c-37.18,40.91-74.71,81.52-112.1,122.24c-14.06,15.31-28.03,30.7-42.13,45.99
		c-2.18,2.36-4.21,6.41-7.75,5.45c-5.05-1.37-2.74-6.34-2.75-9.65c-0.16-54.72,0.34-109.44-0.45-164.15
		c-0.21-14.31,10.78-20.65,18.14-28.73c48.42-53.12,98.04-105.21,146.71-158.12c8.03-8.73,12.11-7.52,19.32,0.45
		c32.65,36.1,66,71.59,98.79,107.57c6.79,7.45,9.81,9.79,18.46,0.05c41.44-46.61,83.93-92.37,126.96-137.61
		c8.8-9.26,8.08-13.66-0.49-21.99c-15.58-15.15-29.22-32.16-44.49-47.64c-7.77-7.87-6.34-10.58,3.76-13.46
		c48.35-13.77,96.57-27.99,144.84-42.02c38.69-11.25,77.4-22.45,116.1-33.69c15-4.35,16.12-3.79,12.69,10.99
		c-12.85,55.41-26.09,110.74-39.25,166.09c-9.17,38.57-18.45,77.11-27.66,115.67c-0.86,3.58-0.54,8.34-4.53,9.68
		c-4.38,1.47-6.28-3.37-8.84-5.79C632.98,353.29,616.97,332.03,595.83,314.31z"/>
	<path class="st1" d="M777.61,800.82c-65.44,0-130.48-0.12-195.51,0.17c-7.15,0.03-11.64-2.73-15.94-7.52
		C520.62,742.7,475,692,429.42,641.28c-12.9-14.35-25.27-29.19-38.86-42.91c-7.98-8.06-9.44-14.01-1.14-22.82
		c22.94-24.37,45.16-49.39,67.68-74.14c1.59-1.75,3.42-3.3,4.98-5.07c17.73-20.25,17.91-20.42,36.47-0.46
		c51.98,55.89,103.83,111.88,155.64,167.91c40,43.25,79.87,86.62,119.78,129.95C775.71,795.63,778.49,797.15,777.61,800.82z"/>
	<path class="st2" d="M74.13,405.15c0-6.1,0-9.62,0-13.14c0.01-106.12,0.2-212.25-0.24-318.37c-0.05-11.18,3.2-13.95,14.44-13.81
		c48.69,0.6,97.39,0.47,146.08,0.09c9.28-0.07,13.61,1.16,13.47,11.81c-0.61,47.68-0.3,95.37-0.23,143.05
		c0.01,5.28-0.82,9.63-4.94,13.88c-39.63,41.01-79.01,82.24-118.39,123.46C108.17,369.03,92.18,386.07,74.13,405.15z"/>
	<path class="st2" d="M247.6,479.03c0,103.53-0.1,204.98,0.18,306.43c0.02,8.49-3.42,9.89-11.07,9.85
		c-50.63-0.24-101.26-0.25-151.89,0.05c-7.99,0.05-10.92-2.02-10.84-10.17c0.38-39.27,0.64-78.55-0.12-117.82
		c-0.22-11.47,8.44-16.79,14.28-23.02c43.87-46.81,88.71-92.78,133.16-139.09C229.35,496.89,235.47,486.71,247.6,479.03z"/>
	<path class="st3" d="M795.86,922.54c1.77,53.48-42.16,76.28-83.12,64.92c-19.89-5.52-33.84-17.74-39.51-37.17
		c-7.18-24.59-8.04-49.41,8.59-70.89c17.53-22.65,47.49-29.57,75.27-19.61C782.05,868.74,795.88,891.12,795.86,922.54z"/>
	<path class="st3" d="M185.77,922.41c0.02-48.54,37.08-76.72,84.16-63.52c19.26,5.4,32.74,17.65,38.38,36.56
		c7.34,24.63,8.07,49.41-8.32,70.94c-17.3,22.74-47.3,29.77-75.16,19.97C199.79,977.54,185.76,954.57,185.77,922.41z"/>
	<path class="st4" d="M195.14,987.23c-14.99,0-26.84,0-38.69,0c-7,0-9.76-5.62-13.03-9.93c-7.94-10.49-15.15-21.51-23-32.08
		c-1.96-2.64-3.26-7.85-8.22-5.81c-3.65,1.5-5.19,5.28-5.17,9.37c0.04,9.35-0.42,18.72,0.1,28.05c0.42,7.64-1.88,11.46-10.41,10.52
		c-4.28-0.47-8.71-0.42-13-0.01c-7.89,0.76-11.03-1.77-10.94-10.03c0.4-36,0.34-72,0.03-108c-0.06-7.53,1.7-11.57,10.34-10.62
		c4.28,0.47,8.73,0.54,13,0c9.43-1.19,11.54,3.22,11,11.35c-0.58,8.69-0.13,17.44-0.13,26.16c1.26,0.65,2.51,1.3,3.77,1.94
		c9.34-9.71,19.73-18.69,27.69-29.37c6.29-8.44,13.21-10.84,23.12-10.13c9.35,0.67,18.79,0.14,28.19,0.14
		c0.9,1.57,1.8,3.15,2.71,4.72c-15.32,13.91-30.45,28.03-46.06,41.63c-6.28,5.47-6.59,8.8-0.96,15.77
		C162,941.38,177.11,962.92,195.14,987.23z"/>
	<path class="st4" d="M364.1,868.15c11.66,19.53,23.31,39.05,34.97,58.58c0.84-0.1,1.69-0.21,2.53-0.31
		c0-18.81,0.75-37.65-0.24-56.41c-0.77-14.66,9.31-10.94,17.22-11.16c7.82-0.22,16.12-2.59,15.77,10.92
		c-0.92,35.46-0.7,70.96-0.1,106.43c0.17,9.94-4.25,10.42-12.64,11.48c-16.01,2.02-24.52-4.68-31.16-17.82
		c-7.79-15.43-17.12-30.13-25.97-45.05c-1.63-2.74-2.03-7.7-7.64-5.72c-1.54,17.11-2.37,34.27-1.97,51.43
		c0.22,9.3-1.34,14.71-13.32,14.56c-12.06-0.16-14.54-4.98-14.39-15.35c0.47-32.24,0.49-64.5-0.03-96.74
		c-0.14-9.08,2.28-12.92,12.08-11.81C347.99,862.19,357.88,858.74,364.1,868.15z"/>
	<path class="st4" d="M589.54,889.25c1.19,4.69,1.35,9.37-0.13,14.04c14.32,6.86,29.63,4.58,44.49,3.52
		c9.67-0.69,14.35,0.68,14.86,11.14c0.49,9.95-1.67,14.65-13.26,13.66c-11.96-1.03-24.09,0.05-36.13-0.31
		c-11.49-0.33-11.73,6.72-11.74,14.85c0,7.9-0.63,15.13,11.28,14.83c15.41-0.39,30.86,0.26,46.27-0.18
		c11.08-0.31,11.98,5.45,12.29,14.13c0.36,10.15-5.45,9.9-12.76,9.84c-24.1-0.19-48.21-0.35-72.3,0.06
		c-9.87,0.17-13.8-3.13-13.68-12.99c0.4-33.65,0.3-67.3,0.03-100.95c-0.06-7.18,2.19-9.84,9.87-9.73
		c25.06,0.37,50.13,0.42,75.19-0.02c8.25-0.14,11.08,2.44,10.65,10.39c-0.42,7.89,0.2,15.27-11.54,15.02
		c-15.42-0.34-30.85-0.15-46.27-0.02C594.07,886.57,590.65,885.27,589.54,889.25z"/>
	<path class="st5" d="M514.08,887.32c-4.1,26.88-0.59,53.93-1.96,80.86c-0.32,6.2,3.75,15.6-2.96,17.93
		c-8.12,2.82-18.06,1.15-27.17,0.7c-4.78-0.23-3.78-4.75-3.76-7.78c0.2-29.87,0.53-59.74,0.83-89.61
		c-7.25-5.76-16.13-3.56-24.26-4.19c-10.86-0.84-11.5-7.23-11.86-15.44c-0.44-9.99,6.3-8.47,12.43-8.47
		c26.94-0.01,53.88,0.05,80.82-0.05c6.11-0.02,11.97-0.4,11.04,8.3c-0.69,6.47,2.64,14.25-8.82,15.82
		C530.29,886.51,522.07,885.42,514.08,887.32z"/>
	<path class="st6" d="M589.54,889.25c2.54-5.97,8.05-4.03,12.51-4.11c12.51-0.24,25.04-0.35,37.54,0
		c8.84,0.25,13.09-2.53,13.49-11.9c0.45-10.75-5.8-10.74-13.7-10.66c-22.14,0.22-44.3,0.57-66.42-0.1
		c-10.51-0.32-12.99,3.6-12.84,13.02c0.48,31.26,0.45,62.54,0.03,93.81c-0.13,10.02,3.06,14.42,14.03,14.18
		c23.57-0.53,47.17-0.37,70.75-0.03c7.98,0.12,11.17-2.39,11.06-10.42c-0.1-7.62-3.58-9.56-10.62-9.43
		c-14.43,0.27-28.93-0.64-43.31,0.28c-13.49,0.86-16.21-5.22-15.99-16.71c0.2-10.73,1.1-18.41,15.35-17.3
		c11.48,0.89,23.13-0.37,34.63,0.33c10.87,0.66,11.65-5.22,11.03-13.1c-0.65-8.2-4.59-9.04-12.64-8.11
		c-15.23,1.77-31.27,5.34-45.01-5.68c16.6,4.04,33.53,2,50.22,1.54c13.88-0.38,11.2,7.87,11.58,15.51
		c0.4,7.92,0.93,14.76-11.35,13.8c-13.4-1.04-26.98,0.25-40.43-0.38c-11.51-0.54-8.86,6.99-9.05,13.09
		c-0.18,6.03-1.44,12.23,8.84,11.82c16.35-0.65,32.77,0.38,49.11-0.34c15.01-0.65,10.47,9.66,11.5,17.15
		c1.21,8.8-1.89,12.26-11.73,12.02c-26.47-0.63-52.98-0.47-79.46-0.05c-8.76,0.14-12.79-1.47-12.63-11.32
		c0.57-35.49,0.41-70.99-0.05-106.48c-0.11-8.56,2.46-11.27,11.41-11.09c26.48,0.54,53,0.77,79.46-0.05
		c12.26-0.38,10.33,6.88,10.02,13.58c-0.31,6.67,3.58,15.49-9.8,15.61C627.89,887.89,608.61,885.5,589.54,889.25z"/>
	<path class="st7" d="M364.1,868.15c-2.47-1.41-4.8-3.16-7.43-4.17c-18.36-7.09-27.92-1.07-27.92,17.42
		c0,29.39,0.18,58.79-0.1,88.18c-0.09,8.94,2.12,13.82,12.8,13.98c11.45,0.17,11.43-6.61,10.36-13.72
		c-2.23-14.79,5.73-29.33,0.61-44.17c-0.96-2.77,1.83-5.06,4.43-6.57c0.14,19.14-0.13,38.29,0.6,57.41
		c0.34,8.99-3.64,12.68-11.74,10.53c-7.04-1.87-20.17,7.3-20.58-6.82c-1.1-38.26-0.37-76.57-0.37-114.86c0-2.36,0.2-4.63,2.59-6.06
		C334.88,854.8,359.23,860.66,364.1,868.15z"/>
	<path class="st8" d="M514.08,887.32c6.66-4.8,14.78-2.01,22.18-3.79c9.01-2.18,9.95-6.63,9.57-13.79c-0.41-7.82-6-7.06-11.24-7.06
		c-26.35-0.02-52.7,0.07-79.04-0.05c-6.41-0.03-11.29,0.55-11.1,8.73c0.18,7.56,3.35,10.5,11.16,11.23
		c8.09,0.76,17.06,0.03,23.45,6.83c-9.29-3.75-19.07-1.97-28.54-1.7c-13.36,0.39-9.8-8.61-10.02-15.34
		c-0.21-6.56-2.57-14.11,9.75-13.83c29.84,0.66,59.72,0.72,89.55-0.03c12.24-0.31,10.36,6.94,9.93,13.62
		c-0.41,6.52,3.93,16.22-9.67,15.47C531.43,887.13,522.74,887.39,514.08,887.32z"/>
	<path class="st9" d="M703.23,921.07c0.53-10.7,2.48-22.51,13.7-30.71c11.74-8.59,28.71-5.55,37.88,6.91
		c9.37,12.73,9.2,39.26-0.26,51.93c-6.14,8.22-14.19,11.99-24.77,11.06c-11.41-1-18.45-7.46-22.78-16.93
		C704.06,936.9,703.17,929.86,703.23,921.07z"/>
	<path class="st9" d="M278.61,919.78c-0.78,15.5-2.43,27.91-14.43,36.21c-12.28,8.49-28.7,5.16-37.77-7.65
		c-8.77-12.4-8.72-38.56,0.17-50.8c6.3-8.67,14.59-12.78,25.88-11.65c11.58,1.16,18.37,7.96,22.39,17.36
		C277.37,909.15,277.78,915.9,278.61,919.78z"/>
</g>
</svg>
